<?xml version="1.0" encoding="UTF-8"?>
<!DOCTYPE svg PUBLIC "-//W3C//DTD SVG 1.1//EN" "http://www.w3.org/Graphics/SVG/1.1/DTD/svg11.dtd">
<!-- Creator: CorelDRAW X5 -->
<svg xmlns="http://www.w3.org/2000/svg" xml:space="preserve" width="2048px" height="2048px" style="shape-rendering:geometricPrecision; text-rendering:geometricPrecision; image-rendering:optimizeQuality; fill-rule:evenodd; clip-rule:evenodd"
viewBox="0 0 2048 2048"
 xmlns:xlink="http://www.w3.org/1999/xlink">
 <defs>
  <style type="text/css">
   <![CDATA[
    .fil5 {fill:none}
    .fil3 {fill:#212121;fill-rule:nonzero}
    .fil4 {fill:#301B0F;fill-rule:nonzero}
    .fil2 {fill:#361E15;fill-rule:nonzero}
    .fil0 {fill:#402213;fill-rule:nonzero}
    .fil1 {fill:#522E1D;fill-rule:nonzero}
   ]]>
  </style>
 </defs>
 <g id="Layer_x0020_1">
  <metadata id="CorelCorpID_0Corel-Layer"/>
  <path class="fil0" d="M863 933l267 -221c13,-11 32,-11 44,1 27,27 64,46 108,56 48,11 104,13 165,5 50,-6 97,-20 138,-43 40,-22 75,-54 101,-98l0 0c3,-5 7,-8 12,-11 15,-9 35,-3 43,12 77,138 45,313 15,480 -16,87 -31,171 -29,243 0,1 0,2 0,4 0,18 -14,32 -32,32l-416 0 0 0c-18,0 -32,-14 -32,-32l0 -51c-18,6 -36,13 -54,20 -146,53 -275,100 -445,99 -90,0 -183,-12 -267,-33 -79,-20 -149,-50 -201,-89l0 0c-6,-4 -10,-11 -12,-19 -48,-225 38,-305 166,-332 67,-14 145,-12 220,-10 64,2 125,4 171,-5 6,-1 11,-2 15,-3 9,-1 18,-3 21,-5z"/>
  <path class="fil1" d="M888 913l243 -201c13,-11 32,-11 44,1 12,12 27,23 43,32 -11,7 -22,15 -34,25 -73,60 -173,141 -242,194 -15,12 -13,17 -30,9 -12,-6 -28,-18 -26,-45 0,-5 1,-10 2,-15z"/>
  <path class="fil2" d="M729 1429c-83,-2 -169,-13 -246,-33 -79,-20 -149,-50 -201,-89l0 0c-6,-4 -10,-11 -12,-19 -48,-225 38,-305 166,-332 11,-2 23,-4 35,-6 -131,42 -93,188 129,161 80,-10 140,32 163,82 28,61 0,152 -34,235z"/>
  <path class="fil3" d="M1742 1205c-221,-11 -427,-6 -610,71 -188,79 -398,112 -572,84 -95,-15 -191,-58 -300,-126 2,17 5,35 9,54 2,8 6,14 12,19l0 0c52,39 122,69 201,89 84,22 177,33 267,33 170,1 299,-46 445,-99 18,-7 36,-13 54,-20l0 51c0,18 14,32 32,32l0 0 416 0c18,0 32,-14 32,-32 0,-1 0,-2 0,-4 -1,-45 4,-95 12,-148l1 -5z"/>
  <path class="fil2" d="M1785 766c16,110 -6,232 -27,349 -5,30 -11,61 -15,90 -38,-2 -76,-3 -113,-4 0,-25 1,-51 5,-79 29,-207 29,-304 150,-356z"/>
  <path class="fil4" d="M1171 711c1,1 3,2 4,3 27,27 64,45 108,56 48,11 104,13 165,5 50,-6 97,-20 138,-43 39,-22 72,-52 99,-93 28,-44 58,24 18,81 -87,121 -398,167 -502,48 -14,-16 -24,-34 -29,-56z"/>
  <path class="fil3" d="M1089 725c3,-6 10,-9 16,-7 6,3 9,10 7,16 -4,10 -1,25 6,41 8,17 20,32 33,40 6,3 8,11 5,17 -3,6 -11,8 -17,5 -17,-10 -33,-30 -43,-51 -10,-21 -14,-44 -7,-61z"/>
  <path class="fil3" d="M1037 773c3,-6 10,-9 16,-7 6,3 9,10 7,16 -4,10 -1,25 6,41 8,17 20,32 33,40 6,3 8,11 5,17 -3,6 -11,8 -17,5 -17,-10 -33,-30 -43,-51 -10,-21 -14,-44 -7,-61z"/>
  <path class="fil3" d="M985 820c3,-6 10,-9 16,-7 6,3 9,10 7,16 -4,10 -1,25 6,41 8,17 20,32 33,40 6,3 8,11 5,17 -3,6 -11,8 -17,5 -17,-10 -33,-30 -43,-51 -10,-21 -14,-44 -7,-61z"/>
  <path class="fil3" d="M929 862c3,-6 10,-9 16,-7 6,3 9,10 7,16 -4,10 -1,25 6,41 8,17 20,32 33,40 6,3 8,11 5,17 -3,6 -11,8 -17,5 -17,-10 -33,-30 -43,-51 -10,-21 -14,-44 -7,-61z"/>
  <rect class="fil5" width="2048" height="2048"/>
 </g>
</svg>
